%TF.GenerationSoftware,KiCad,Pcbnew,(7.0.0)*%
%TF.CreationDate,2023-02-16T14:42:30-08:00*%
%TF.ProjectId,Lab 4 E2,4c616220-3420-4453-922e-6b696361645f,rev?*%
%TF.SameCoordinates,Original*%
%TF.FileFunction,Legend,Top*%
%TF.FilePolarity,Positive*%
%FSLAX46Y46*%
G04 Gerber Fmt 4.6, Leading zero omitted, Abs format (unit mm)*
G04 Created by KiCad (PCBNEW (7.0.0)) date 2023-02-16 14:42:30*
%MOMM*%
%LPD*%
G01*
G04 APERTURE LIST*
%ADD10C,0.150000*%
%ADD11C,0.120000*%
G04 APERTURE END LIST*
D10*
%TO.C,D2*%
X47267905Y-60819380D02*
X47267905Y-59819380D01*
X47267905Y-59819380D02*
X47506000Y-59819380D01*
X47506000Y-59819380D02*
X47648857Y-59867000D01*
X47648857Y-59867000D02*
X47744095Y-59962238D01*
X47744095Y-59962238D02*
X47791714Y-60057476D01*
X47791714Y-60057476D02*
X47839333Y-60247952D01*
X47839333Y-60247952D02*
X47839333Y-60390809D01*
X47839333Y-60390809D02*
X47791714Y-60581285D01*
X47791714Y-60581285D02*
X47744095Y-60676523D01*
X47744095Y-60676523D02*
X47648857Y-60771761D01*
X47648857Y-60771761D02*
X47506000Y-60819380D01*
X47506000Y-60819380D02*
X47267905Y-60819380D01*
X48220286Y-59914619D02*
X48267905Y-59867000D01*
X48267905Y-59867000D02*
X48363143Y-59819380D01*
X48363143Y-59819380D02*
X48601238Y-59819380D01*
X48601238Y-59819380D02*
X48696476Y-59867000D01*
X48696476Y-59867000D02*
X48744095Y-59914619D01*
X48744095Y-59914619D02*
X48791714Y-60009857D01*
X48791714Y-60009857D02*
X48791714Y-60105095D01*
X48791714Y-60105095D02*
X48744095Y-60247952D01*
X48744095Y-60247952D02*
X48172667Y-60819380D01*
X48172667Y-60819380D02*
X48791714Y-60819380D01*
%TO.C,J1*%
X58086666Y-32387380D02*
X58086666Y-33101666D01*
X58086666Y-33101666D02*
X58039047Y-33244523D01*
X58039047Y-33244523D02*
X57943809Y-33339761D01*
X57943809Y-33339761D02*
X57800952Y-33387380D01*
X57800952Y-33387380D02*
X57705714Y-33387380D01*
X59086666Y-33387380D02*
X58515238Y-33387380D01*
X58800952Y-33387380D02*
X58800952Y-32387380D01*
X58800952Y-32387380D02*
X58705714Y-32530238D01*
X58705714Y-32530238D02*
X58610476Y-32625476D01*
X58610476Y-32625476D02*
X58515238Y-32673095D01*
%TO.C,C2*%
X60216142Y-58078666D02*
X60263761Y-58126285D01*
X60263761Y-58126285D02*
X60311380Y-58269142D01*
X60311380Y-58269142D02*
X60311380Y-58364380D01*
X60311380Y-58364380D02*
X60263761Y-58507237D01*
X60263761Y-58507237D02*
X60168523Y-58602475D01*
X60168523Y-58602475D02*
X60073285Y-58650094D01*
X60073285Y-58650094D02*
X59882809Y-58697713D01*
X59882809Y-58697713D02*
X59739952Y-58697713D01*
X59739952Y-58697713D02*
X59549476Y-58650094D01*
X59549476Y-58650094D02*
X59454238Y-58602475D01*
X59454238Y-58602475D02*
X59359000Y-58507237D01*
X59359000Y-58507237D02*
X59311380Y-58364380D01*
X59311380Y-58364380D02*
X59311380Y-58269142D01*
X59311380Y-58269142D02*
X59359000Y-58126285D01*
X59359000Y-58126285D02*
X59406619Y-58078666D01*
X59406619Y-57697713D02*
X59359000Y-57650094D01*
X59359000Y-57650094D02*
X59311380Y-57554856D01*
X59311380Y-57554856D02*
X59311380Y-57316761D01*
X59311380Y-57316761D02*
X59359000Y-57221523D01*
X59359000Y-57221523D02*
X59406619Y-57173904D01*
X59406619Y-57173904D02*
X59501857Y-57126285D01*
X59501857Y-57126285D02*
X59597095Y-57126285D01*
X59597095Y-57126285D02*
X59739952Y-57173904D01*
X59739952Y-57173904D02*
X60311380Y-57745332D01*
X60311380Y-57745332D02*
X60311380Y-57126285D01*
%TO.C,R4*%
X45837380Y-52739602D02*
X45361190Y-53072935D01*
X45837380Y-53311030D02*
X44837380Y-53311030D01*
X44837380Y-53311030D02*
X44837380Y-52930078D01*
X44837380Y-52930078D02*
X44885000Y-52834840D01*
X44885000Y-52834840D02*
X44932619Y-52787221D01*
X44932619Y-52787221D02*
X45027857Y-52739602D01*
X45027857Y-52739602D02*
X45170714Y-52739602D01*
X45170714Y-52739602D02*
X45265952Y-52787221D01*
X45265952Y-52787221D02*
X45313571Y-52834840D01*
X45313571Y-52834840D02*
X45361190Y-52930078D01*
X45361190Y-52930078D02*
X45361190Y-53311030D01*
X45170714Y-51882459D02*
X45837380Y-51882459D01*
X44789761Y-52120554D02*
X45504047Y-52358649D01*
X45504047Y-52358649D02*
X45504047Y-51739602D01*
%TO.C,R1*%
X70597380Y-43346666D02*
X70121190Y-43679999D01*
X70597380Y-43918094D02*
X69597380Y-43918094D01*
X69597380Y-43918094D02*
X69597380Y-43537142D01*
X69597380Y-43537142D02*
X69645000Y-43441904D01*
X69645000Y-43441904D02*
X69692619Y-43394285D01*
X69692619Y-43394285D02*
X69787857Y-43346666D01*
X69787857Y-43346666D02*
X69930714Y-43346666D01*
X69930714Y-43346666D02*
X70025952Y-43394285D01*
X70025952Y-43394285D02*
X70073571Y-43441904D01*
X70073571Y-43441904D02*
X70121190Y-43537142D01*
X70121190Y-43537142D02*
X70121190Y-43918094D01*
X70597380Y-42394285D02*
X70597380Y-42965713D01*
X70597380Y-42679999D02*
X69597380Y-42679999D01*
X69597380Y-42679999D02*
X69740238Y-42775237D01*
X69740238Y-42775237D02*
X69835476Y-42870475D01*
X69835476Y-42870475D02*
X69883095Y-42965713D01*
%TO.C,D1*%
X47521905Y-39187380D02*
X47521905Y-38187380D01*
X47521905Y-38187380D02*
X47760000Y-38187380D01*
X47760000Y-38187380D02*
X47902857Y-38235000D01*
X47902857Y-38235000D02*
X47998095Y-38330238D01*
X47998095Y-38330238D02*
X48045714Y-38425476D01*
X48045714Y-38425476D02*
X48093333Y-38615952D01*
X48093333Y-38615952D02*
X48093333Y-38758809D01*
X48093333Y-38758809D02*
X48045714Y-38949285D01*
X48045714Y-38949285D02*
X47998095Y-39044523D01*
X47998095Y-39044523D02*
X47902857Y-39139761D01*
X47902857Y-39139761D02*
X47760000Y-39187380D01*
X47760000Y-39187380D02*
X47521905Y-39187380D01*
X49045714Y-39187380D02*
X48474286Y-39187380D01*
X48760000Y-39187380D02*
X48760000Y-38187380D01*
X48760000Y-38187380D02*
X48664762Y-38330238D01*
X48664762Y-38330238D02*
X48569524Y-38425476D01*
X48569524Y-38425476D02*
X48474286Y-38473095D01*
%TO.C,U1*%
X57088095Y-44977380D02*
X57088095Y-45786904D01*
X57088095Y-45786904D02*
X57135714Y-45882142D01*
X57135714Y-45882142D02*
X57183333Y-45929761D01*
X57183333Y-45929761D02*
X57278571Y-45977380D01*
X57278571Y-45977380D02*
X57469047Y-45977380D01*
X57469047Y-45977380D02*
X57564285Y-45929761D01*
X57564285Y-45929761D02*
X57611904Y-45882142D01*
X57611904Y-45882142D02*
X57659523Y-45786904D01*
X57659523Y-45786904D02*
X57659523Y-44977380D01*
X58659523Y-45977380D02*
X58088095Y-45977380D01*
X58373809Y-45977380D02*
X58373809Y-44977380D01*
X58373809Y-44977380D02*
X58278571Y-45120238D01*
X58278571Y-45120238D02*
X58183333Y-45215476D01*
X58183333Y-45215476D02*
X58088095Y-45263095D01*
%TO.C,C1*%
X70022142Y-57684166D02*
X70069761Y-57731785D01*
X70069761Y-57731785D02*
X70117380Y-57874642D01*
X70117380Y-57874642D02*
X70117380Y-57969880D01*
X70117380Y-57969880D02*
X70069761Y-58112737D01*
X70069761Y-58112737D02*
X69974523Y-58207975D01*
X69974523Y-58207975D02*
X69879285Y-58255594D01*
X69879285Y-58255594D02*
X69688809Y-58303213D01*
X69688809Y-58303213D02*
X69545952Y-58303213D01*
X69545952Y-58303213D02*
X69355476Y-58255594D01*
X69355476Y-58255594D02*
X69260238Y-58207975D01*
X69260238Y-58207975D02*
X69165000Y-58112737D01*
X69165000Y-58112737D02*
X69117380Y-57969880D01*
X69117380Y-57969880D02*
X69117380Y-57874642D01*
X69117380Y-57874642D02*
X69165000Y-57731785D01*
X69165000Y-57731785D02*
X69212619Y-57684166D01*
X70117380Y-56731785D02*
X70117380Y-57303213D01*
X70117380Y-57017499D02*
X69117380Y-57017499D01*
X69117380Y-57017499D02*
X69260238Y-57112737D01*
X69260238Y-57112737D02*
X69355476Y-57207975D01*
X69355476Y-57207975D02*
X69403095Y-57303213D01*
%TO.C,R3*%
X45822380Y-46426666D02*
X45346190Y-46759999D01*
X45822380Y-46998094D02*
X44822380Y-46998094D01*
X44822380Y-46998094D02*
X44822380Y-46617142D01*
X44822380Y-46617142D02*
X44870000Y-46521904D01*
X44870000Y-46521904D02*
X44917619Y-46474285D01*
X44917619Y-46474285D02*
X45012857Y-46426666D01*
X45012857Y-46426666D02*
X45155714Y-46426666D01*
X45155714Y-46426666D02*
X45250952Y-46474285D01*
X45250952Y-46474285D02*
X45298571Y-46521904D01*
X45298571Y-46521904D02*
X45346190Y-46617142D01*
X45346190Y-46617142D02*
X45346190Y-46998094D01*
X44822380Y-46093332D02*
X44822380Y-45474285D01*
X44822380Y-45474285D02*
X45203333Y-45807618D01*
X45203333Y-45807618D02*
X45203333Y-45664761D01*
X45203333Y-45664761D02*
X45250952Y-45569523D01*
X45250952Y-45569523D02*
X45298571Y-45521904D01*
X45298571Y-45521904D02*
X45393809Y-45474285D01*
X45393809Y-45474285D02*
X45631904Y-45474285D01*
X45631904Y-45474285D02*
X45727142Y-45521904D01*
X45727142Y-45521904D02*
X45774761Y-45569523D01*
X45774761Y-45569523D02*
X45822380Y-45664761D01*
X45822380Y-45664761D02*
X45822380Y-45950475D01*
X45822380Y-45950475D02*
X45774761Y-46045713D01*
X45774761Y-46045713D02*
X45727142Y-46093332D01*
%TO.C,R2*%
X70417380Y-50512538D02*
X69941190Y-50845871D01*
X70417380Y-51083966D02*
X69417380Y-51083966D01*
X69417380Y-51083966D02*
X69417380Y-50703014D01*
X69417380Y-50703014D02*
X69465000Y-50607776D01*
X69465000Y-50607776D02*
X69512619Y-50560157D01*
X69512619Y-50560157D02*
X69607857Y-50512538D01*
X69607857Y-50512538D02*
X69750714Y-50512538D01*
X69750714Y-50512538D02*
X69845952Y-50560157D01*
X69845952Y-50560157D02*
X69893571Y-50607776D01*
X69893571Y-50607776D02*
X69941190Y-50703014D01*
X69941190Y-50703014D02*
X69941190Y-51083966D01*
X69512619Y-50131585D02*
X69465000Y-50083966D01*
X69465000Y-50083966D02*
X69417380Y-49988728D01*
X69417380Y-49988728D02*
X69417380Y-49750633D01*
X69417380Y-49750633D02*
X69465000Y-49655395D01*
X69465000Y-49655395D02*
X69512619Y-49607776D01*
X69512619Y-49607776D02*
X69607857Y-49560157D01*
X69607857Y-49560157D02*
X69703095Y-49560157D01*
X69703095Y-49560157D02*
X69845952Y-49607776D01*
X69845952Y-49607776D02*
X70417380Y-50179204D01*
X70417380Y-50179204D02*
X70417380Y-49560157D01*
D11*
%TO.C,D2*%
X50720000Y-59555000D02*
X50720000Y-57285000D01*
X50720000Y-57285000D02*
X46660000Y-57285000D01*
X46660000Y-59555000D02*
X50720000Y-59555000D01*
%TO.C,J1*%
X63500000Y-31750000D02*
X63500000Y-24130000D01*
X63500000Y-24130000D02*
X53340000Y-24130000D01*
X53340000Y-31750000D02*
X63500000Y-31750000D01*
X53340000Y-25400000D02*
X63500000Y-25400000D01*
X53340000Y-24130000D02*
X53340000Y-31750000D01*
%TO.C,C2*%
X58600000Y-58158748D02*
X58600000Y-58681252D01*
X57130000Y-58158748D02*
X57130000Y-58681252D01*
%TO.C,R4*%
X44555000Y-52345872D02*
X44555000Y-52800000D01*
X43085000Y-52345872D02*
X43085000Y-52800000D01*
%TO.C,R1*%
X69315000Y-42952936D02*
X69315000Y-43407064D01*
X67845000Y-42952936D02*
X67845000Y-43407064D01*
%TO.C,D1*%
X45800000Y-39505000D02*
X45800000Y-41775000D01*
X45800000Y-41775000D02*
X49860000Y-41775000D01*
X49860000Y-39505000D02*
X45800000Y-39505000D01*
%TO.C,U1*%
X57850000Y-46450000D02*
X54400000Y-46450000D01*
X57850000Y-46450000D02*
X59800000Y-46450000D01*
X57850000Y-51570000D02*
X55900000Y-51570000D01*
X57850000Y-51570000D02*
X59800000Y-51570000D01*
%TO.C,C1*%
X68935000Y-55032500D02*
X67065000Y-55032500D01*
X67065000Y-55032500D02*
X67065000Y-59117500D01*
X68935000Y-59117500D02*
X68935000Y-55032500D01*
%TO.C,R3*%
X44540000Y-46032936D02*
X44540000Y-46487064D01*
X43070000Y-46032936D02*
X43070000Y-46487064D01*
%TO.C,R2*%
X69135000Y-50118808D02*
X69135000Y-50572936D01*
X67665000Y-50118808D02*
X67665000Y-50572936D01*
%TD*%
M02*
