%TF.GenerationSoftware,KiCad,Pcbnew,(7.0.0)*%
%TF.CreationDate,2023-02-16T14:42:32-08:00*%
%TF.ProjectId,Lab 4 E2,4c616220-3420-4453-922e-6b696361645f,rev?*%
%TF.SameCoordinates,Original*%
%TF.FileFunction,Drillmap*%
%TF.FilePolarity,Positive*%
%FSLAX45Y45*%
G04 Gerber Fmt 4.5, Leading zero omitted, Abs format (unit mm)*
G04 Created by KiCad (PCBNEW (7.0.0)) date 2023-02-16 14:42:32*
%MOMM*%
%LPD*%
G01*
G04 APERTURE LIST*
%ADD10C,0.100000*%
%ADD11C,0.200000*%
%ADD12C,0.040000*%
%ADD13C,0.152000*%
G04 APERTURE END LIST*
D10*
X4064000Y-2032000D02*
X7366000Y-2032000D01*
X7366000Y-2032000D02*
X7366000Y-6096000D01*
X7366000Y-6096000D02*
X4064000Y-6096000D01*
X4064000Y-6096000D02*
X4064000Y-2032000D01*
D11*
D12*
X5314000Y-4044000D02*
X5354000Y-4084000D01*
X5354000Y-4044000D02*
X5314000Y-4084000D01*
X5314000Y-4806000D02*
X5354000Y-4846000D01*
X5354000Y-4806000D02*
X5314000Y-4846000D01*
X6076000Y-4044000D02*
X6116000Y-4084000D01*
X6116000Y-4044000D02*
X6076000Y-4084000D01*
X6330000Y-5314000D02*
X6370000Y-5354000D01*
X6370000Y-5314000D02*
X6330000Y-5354000D01*
D13*
X5664000Y-2794000D02*
G75*
G03*
X5664000Y-2794000I-76000J0D01*
G01*
X6172000Y-2794000D02*
G75*
G03*
X6172000Y-2794000I-76000J0D01*
G01*
D11*
X4306619Y-6394476D02*
X4306619Y-6194476D01*
X4306619Y-6194476D02*
X4354238Y-6194476D01*
X4354238Y-6194476D02*
X4382810Y-6204000D01*
X4382810Y-6204000D02*
X4401857Y-6223048D01*
X4401857Y-6223048D02*
X4411381Y-6242095D01*
X4411381Y-6242095D02*
X4420905Y-6280190D01*
X4420905Y-6280190D02*
X4420905Y-6308762D01*
X4420905Y-6308762D02*
X4411381Y-6346857D01*
X4411381Y-6346857D02*
X4401857Y-6365905D01*
X4401857Y-6365905D02*
X4382810Y-6384952D01*
X4382810Y-6384952D02*
X4354238Y-6394476D01*
X4354238Y-6394476D02*
X4306619Y-6394476D01*
X4506619Y-6394476D02*
X4506619Y-6261143D01*
X4506619Y-6299238D02*
X4516143Y-6280190D01*
X4516143Y-6280190D02*
X4525667Y-6270667D01*
X4525667Y-6270667D02*
X4544714Y-6261143D01*
X4544714Y-6261143D02*
X4563762Y-6261143D01*
X4630429Y-6394476D02*
X4630429Y-6261143D01*
X4630429Y-6194476D02*
X4620905Y-6204000D01*
X4620905Y-6204000D02*
X4630429Y-6213524D01*
X4630429Y-6213524D02*
X4639952Y-6204000D01*
X4639952Y-6204000D02*
X4630429Y-6194476D01*
X4630429Y-6194476D02*
X4630429Y-6213524D01*
X4754238Y-6394476D02*
X4735190Y-6384952D01*
X4735190Y-6384952D02*
X4725667Y-6365905D01*
X4725667Y-6365905D02*
X4725667Y-6194476D01*
X4859000Y-6394476D02*
X4839952Y-6384952D01*
X4839952Y-6384952D02*
X4830429Y-6365905D01*
X4830429Y-6365905D02*
X4830429Y-6194476D01*
X5055190Y-6394476D02*
X5055190Y-6194476D01*
X5055190Y-6194476D02*
X5121857Y-6337333D01*
X5121857Y-6337333D02*
X5188524Y-6194476D01*
X5188524Y-6194476D02*
X5188524Y-6394476D01*
X5369476Y-6394476D02*
X5369476Y-6289714D01*
X5369476Y-6289714D02*
X5359952Y-6270667D01*
X5359952Y-6270667D02*
X5340905Y-6261143D01*
X5340905Y-6261143D02*
X5302809Y-6261143D01*
X5302809Y-6261143D02*
X5283762Y-6270667D01*
X5369476Y-6384952D02*
X5350429Y-6394476D01*
X5350429Y-6394476D02*
X5302809Y-6394476D01*
X5302809Y-6394476D02*
X5283762Y-6384952D01*
X5283762Y-6384952D02*
X5274238Y-6365905D01*
X5274238Y-6365905D02*
X5274238Y-6346857D01*
X5274238Y-6346857D02*
X5283762Y-6327809D01*
X5283762Y-6327809D02*
X5302809Y-6318286D01*
X5302809Y-6318286D02*
X5350429Y-6318286D01*
X5350429Y-6318286D02*
X5369476Y-6308762D01*
X5464714Y-6261143D02*
X5464714Y-6461143D01*
X5464714Y-6270667D02*
X5483762Y-6261143D01*
X5483762Y-6261143D02*
X5521857Y-6261143D01*
X5521857Y-6261143D02*
X5540905Y-6270667D01*
X5540905Y-6270667D02*
X5550429Y-6280190D01*
X5550429Y-6280190D02*
X5559952Y-6299238D01*
X5559952Y-6299238D02*
X5559952Y-6356381D01*
X5559952Y-6356381D02*
X5550429Y-6375428D01*
X5550429Y-6375428D02*
X5540905Y-6384952D01*
X5540905Y-6384952D02*
X5521857Y-6394476D01*
X5521857Y-6394476D02*
X5483762Y-6394476D01*
X5483762Y-6394476D02*
X5464714Y-6384952D01*
X5645667Y-6375428D02*
X5655190Y-6384952D01*
X5655190Y-6384952D02*
X5645667Y-6394476D01*
X5645667Y-6394476D02*
X5636143Y-6384952D01*
X5636143Y-6384952D02*
X5645667Y-6375428D01*
X5645667Y-6375428D02*
X5645667Y-6394476D01*
X5645667Y-6270667D02*
X5655190Y-6280190D01*
X5655190Y-6280190D02*
X5645667Y-6289714D01*
X5645667Y-6289714D02*
X5636143Y-6280190D01*
X5636143Y-6280190D02*
X5645667Y-6270667D01*
X5645667Y-6270667D02*
X5645667Y-6289714D01*
D12*
X4019000Y-6721000D02*
X4059000Y-6761000D01*
X4059000Y-6721000D02*
X4019000Y-6761000D01*
D11*
X4344714Y-6614476D02*
X4363762Y-6614476D01*
X4363762Y-6614476D02*
X4382810Y-6624000D01*
X4382810Y-6624000D02*
X4392333Y-6633524D01*
X4392333Y-6633524D02*
X4401857Y-6652571D01*
X4401857Y-6652571D02*
X4411381Y-6690667D01*
X4411381Y-6690667D02*
X4411381Y-6738286D01*
X4411381Y-6738286D02*
X4401857Y-6776381D01*
X4401857Y-6776381D02*
X4392333Y-6795428D01*
X4392333Y-6795428D02*
X4382810Y-6804952D01*
X4382810Y-6804952D02*
X4363762Y-6814476D01*
X4363762Y-6814476D02*
X4344714Y-6814476D01*
X4344714Y-6814476D02*
X4325667Y-6804952D01*
X4325667Y-6804952D02*
X4316143Y-6795428D01*
X4316143Y-6795428D02*
X4306619Y-6776381D01*
X4306619Y-6776381D02*
X4297095Y-6738286D01*
X4297095Y-6738286D02*
X4297095Y-6690667D01*
X4297095Y-6690667D02*
X4306619Y-6652571D01*
X4306619Y-6652571D02*
X4316143Y-6633524D01*
X4316143Y-6633524D02*
X4325667Y-6624000D01*
X4325667Y-6624000D02*
X4344714Y-6614476D01*
X4497095Y-6795428D02*
X4506619Y-6804952D01*
X4506619Y-6804952D02*
X4497095Y-6814476D01*
X4497095Y-6814476D02*
X4487571Y-6804952D01*
X4487571Y-6804952D02*
X4497095Y-6795428D01*
X4497095Y-6795428D02*
X4497095Y-6814476D01*
X4678048Y-6681143D02*
X4678048Y-6814476D01*
X4630429Y-6604952D02*
X4582810Y-6747809D01*
X4582810Y-6747809D02*
X4706619Y-6747809D01*
X4820905Y-6614476D02*
X4839952Y-6614476D01*
X4839952Y-6614476D02*
X4859000Y-6624000D01*
X4859000Y-6624000D02*
X4868524Y-6633524D01*
X4868524Y-6633524D02*
X4878048Y-6652571D01*
X4878048Y-6652571D02*
X4887571Y-6690667D01*
X4887571Y-6690667D02*
X4887571Y-6738286D01*
X4887571Y-6738286D02*
X4878048Y-6776381D01*
X4878048Y-6776381D02*
X4868524Y-6795428D01*
X4868524Y-6795428D02*
X4859000Y-6804952D01*
X4859000Y-6804952D02*
X4839952Y-6814476D01*
X4839952Y-6814476D02*
X4820905Y-6814476D01*
X4820905Y-6814476D02*
X4801857Y-6804952D01*
X4801857Y-6804952D02*
X4792333Y-6795428D01*
X4792333Y-6795428D02*
X4782810Y-6776381D01*
X4782810Y-6776381D02*
X4773286Y-6738286D01*
X4773286Y-6738286D02*
X4773286Y-6690667D01*
X4773286Y-6690667D02*
X4782810Y-6652571D01*
X4782810Y-6652571D02*
X4792333Y-6633524D01*
X4792333Y-6633524D02*
X4801857Y-6624000D01*
X4801857Y-6624000D02*
X4820905Y-6614476D01*
X5011381Y-6614476D02*
X5030429Y-6614476D01*
X5030429Y-6614476D02*
X5049476Y-6624000D01*
X5049476Y-6624000D02*
X5059000Y-6633524D01*
X5059000Y-6633524D02*
X5068524Y-6652571D01*
X5068524Y-6652571D02*
X5078048Y-6690667D01*
X5078048Y-6690667D02*
X5078048Y-6738286D01*
X5078048Y-6738286D02*
X5068524Y-6776381D01*
X5068524Y-6776381D02*
X5059000Y-6795428D01*
X5059000Y-6795428D02*
X5049476Y-6804952D01*
X5049476Y-6804952D02*
X5030429Y-6814476D01*
X5030429Y-6814476D02*
X5011381Y-6814476D01*
X5011381Y-6814476D02*
X4992333Y-6804952D01*
X4992333Y-6804952D02*
X4982810Y-6795428D01*
X4982810Y-6795428D02*
X4973286Y-6776381D01*
X4973286Y-6776381D02*
X4963762Y-6738286D01*
X4963762Y-6738286D02*
X4963762Y-6690667D01*
X4963762Y-6690667D02*
X4973286Y-6652571D01*
X4973286Y-6652571D02*
X4982810Y-6633524D01*
X4982810Y-6633524D02*
X4992333Y-6624000D01*
X4992333Y-6624000D02*
X5011381Y-6614476D01*
X5163762Y-6814476D02*
X5163762Y-6681143D01*
X5163762Y-6700190D02*
X5173286Y-6690667D01*
X5173286Y-6690667D02*
X5192333Y-6681143D01*
X5192333Y-6681143D02*
X5220905Y-6681143D01*
X5220905Y-6681143D02*
X5239952Y-6690667D01*
X5239952Y-6690667D02*
X5249476Y-6709714D01*
X5249476Y-6709714D02*
X5249476Y-6814476D01*
X5249476Y-6709714D02*
X5259000Y-6690667D01*
X5259000Y-6690667D02*
X5278048Y-6681143D01*
X5278048Y-6681143D02*
X5306619Y-6681143D01*
X5306619Y-6681143D02*
X5325667Y-6690667D01*
X5325667Y-6690667D02*
X5335191Y-6709714D01*
X5335191Y-6709714D02*
X5335191Y-6814476D01*
X5430429Y-6814476D02*
X5430429Y-6681143D01*
X5430429Y-6700190D02*
X5439952Y-6690667D01*
X5439952Y-6690667D02*
X5459000Y-6681143D01*
X5459000Y-6681143D02*
X5487572Y-6681143D01*
X5487572Y-6681143D02*
X5506619Y-6690667D01*
X5506619Y-6690667D02*
X5516143Y-6709714D01*
X5516143Y-6709714D02*
X5516143Y-6814476D01*
X5516143Y-6709714D02*
X5525667Y-6690667D01*
X5525667Y-6690667D02*
X5544714Y-6681143D01*
X5544714Y-6681143D02*
X5573286Y-6681143D01*
X5573286Y-6681143D02*
X5592333Y-6690667D01*
X5592333Y-6690667D02*
X5601857Y-6709714D01*
X5601857Y-6709714D02*
X5601857Y-6814476D01*
X5959952Y-6604952D02*
X5788524Y-6862095D01*
X6184714Y-6614476D02*
X6203762Y-6614476D01*
X6203762Y-6614476D02*
X6222810Y-6624000D01*
X6222810Y-6624000D02*
X6232333Y-6633524D01*
X6232333Y-6633524D02*
X6241857Y-6652571D01*
X6241857Y-6652571D02*
X6251381Y-6690667D01*
X6251381Y-6690667D02*
X6251381Y-6738286D01*
X6251381Y-6738286D02*
X6241857Y-6776381D01*
X6241857Y-6776381D02*
X6232333Y-6795428D01*
X6232333Y-6795428D02*
X6222810Y-6804952D01*
X6222810Y-6804952D02*
X6203762Y-6814476D01*
X6203762Y-6814476D02*
X6184714Y-6814476D01*
X6184714Y-6814476D02*
X6165667Y-6804952D01*
X6165667Y-6804952D02*
X6156143Y-6795428D01*
X6156143Y-6795428D02*
X6146619Y-6776381D01*
X6146619Y-6776381D02*
X6137095Y-6738286D01*
X6137095Y-6738286D02*
X6137095Y-6690667D01*
X6137095Y-6690667D02*
X6146619Y-6652571D01*
X6146619Y-6652571D02*
X6156143Y-6633524D01*
X6156143Y-6633524D02*
X6165667Y-6624000D01*
X6165667Y-6624000D02*
X6184714Y-6614476D01*
X6337095Y-6795428D02*
X6346619Y-6804952D01*
X6346619Y-6804952D02*
X6337095Y-6814476D01*
X6337095Y-6814476D02*
X6327571Y-6804952D01*
X6327571Y-6804952D02*
X6337095Y-6795428D01*
X6337095Y-6795428D02*
X6337095Y-6814476D01*
X6470429Y-6614476D02*
X6489476Y-6614476D01*
X6489476Y-6614476D02*
X6508524Y-6624000D01*
X6508524Y-6624000D02*
X6518048Y-6633524D01*
X6518048Y-6633524D02*
X6527571Y-6652571D01*
X6527571Y-6652571D02*
X6537095Y-6690667D01*
X6537095Y-6690667D02*
X6537095Y-6738286D01*
X6537095Y-6738286D02*
X6527571Y-6776381D01*
X6527571Y-6776381D02*
X6518048Y-6795428D01*
X6518048Y-6795428D02*
X6508524Y-6804952D01*
X6508524Y-6804952D02*
X6489476Y-6814476D01*
X6489476Y-6814476D02*
X6470429Y-6814476D01*
X6470429Y-6814476D02*
X6451381Y-6804952D01*
X6451381Y-6804952D02*
X6441857Y-6795428D01*
X6441857Y-6795428D02*
X6432333Y-6776381D01*
X6432333Y-6776381D02*
X6422810Y-6738286D01*
X6422810Y-6738286D02*
X6422810Y-6690667D01*
X6422810Y-6690667D02*
X6432333Y-6652571D01*
X6432333Y-6652571D02*
X6441857Y-6633524D01*
X6441857Y-6633524D02*
X6451381Y-6624000D01*
X6451381Y-6624000D02*
X6470429Y-6614476D01*
X6727571Y-6814476D02*
X6613286Y-6814476D01*
X6670429Y-6814476D02*
X6670429Y-6614476D01*
X6670429Y-6614476D02*
X6651381Y-6643048D01*
X6651381Y-6643048D02*
X6632333Y-6662095D01*
X6632333Y-6662095D02*
X6613286Y-6671619D01*
X6908524Y-6614476D02*
X6813286Y-6614476D01*
X6813286Y-6614476D02*
X6803762Y-6709714D01*
X6803762Y-6709714D02*
X6813286Y-6700190D01*
X6813286Y-6700190D02*
X6832333Y-6690667D01*
X6832333Y-6690667D02*
X6879952Y-6690667D01*
X6879952Y-6690667D02*
X6899000Y-6700190D01*
X6899000Y-6700190D02*
X6908524Y-6709714D01*
X6908524Y-6709714D02*
X6918048Y-6728762D01*
X6918048Y-6728762D02*
X6918048Y-6776381D01*
X6918048Y-6776381D02*
X6908524Y-6795428D01*
X6908524Y-6795428D02*
X6899000Y-6804952D01*
X6899000Y-6804952D02*
X6879952Y-6814476D01*
X6879952Y-6814476D02*
X6832333Y-6814476D01*
X6832333Y-6814476D02*
X6813286Y-6804952D01*
X6813286Y-6804952D02*
X6803762Y-6795428D01*
X6984714Y-6614476D02*
X7118048Y-6614476D01*
X7118048Y-6614476D02*
X7032333Y-6814476D01*
X7184714Y-6614476D02*
X7184714Y-6652571D01*
X7260905Y-6614476D02*
X7260905Y-6652571D01*
X7523762Y-6890667D02*
X7514238Y-6881143D01*
X7514238Y-6881143D02*
X7495191Y-6852571D01*
X7495191Y-6852571D02*
X7485667Y-6833524D01*
X7485667Y-6833524D02*
X7476143Y-6804952D01*
X7476143Y-6804952D02*
X7466619Y-6757333D01*
X7466619Y-6757333D02*
X7466619Y-6719238D01*
X7466619Y-6719238D02*
X7476143Y-6671619D01*
X7476143Y-6671619D02*
X7485667Y-6643048D01*
X7485667Y-6643048D02*
X7495191Y-6624000D01*
X7495191Y-6624000D02*
X7514238Y-6595428D01*
X7514238Y-6595428D02*
X7523762Y-6585905D01*
X7685667Y-6681143D02*
X7685667Y-6814476D01*
X7638048Y-6604952D02*
X7590429Y-6747809D01*
X7590429Y-6747809D02*
X7714238Y-6747809D01*
X7910429Y-6814476D02*
X7910429Y-6614476D01*
X7996143Y-6814476D02*
X7996143Y-6709714D01*
X7996143Y-6709714D02*
X7986619Y-6690667D01*
X7986619Y-6690667D02*
X7967572Y-6681143D01*
X7967572Y-6681143D02*
X7939000Y-6681143D01*
X7939000Y-6681143D02*
X7919952Y-6690667D01*
X7919952Y-6690667D02*
X7910429Y-6700190D01*
X8119952Y-6814476D02*
X8100905Y-6804952D01*
X8100905Y-6804952D02*
X8091381Y-6795428D01*
X8091381Y-6795428D02*
X8081857Y-6776381D01*
X8081857Y-6776381D02*
X8081857Y-6719238D01*
X8081857Y-6719238D02*
X8091381Y-6700190D01*
X8091381Y-6700190D02*
X8100905Y-6690667D01*
X8100905Y-6690667D02*
X8119952Y-6681143D01*
X8119952Y-6681143D02*
X8148524Y-6681143D01*
X8148524Y-6681143D02*
X8167572Y-6690667D01*
X8167572Y-6690667D02*
X8177095Y-6700190D01*
X8177095Y-6700190D02*
X8186619Y-6719238D01*
X8186619Y-6719238D02*
X8186619Y-6776381D01*
X8186619Y-6776381D02*
X8177095Y-6795428D01*
X8177095Y-6795428D02*
X8167572Y-6804952D01*
X8167572Y-6804952D02*
X8148524Y-6814476D01*
X8148524Y-6814476D02*
X8119952Y-6814476D01*
X8300905Y-6814476D02*
X8281857Y-6804952D01*
X8281857Y-6804952D02*
X8272333Y-6785905D01*
X8272333Y-6785905D02*
X8272333Y-6614476D01*
X8453286Y-6804952D02*
X8434238Y-6814476D01*
X8434238Y-6814476D02*
X8396143Y-6814476D01*
X8396143Y-6814476D02*
X8377095Y-6804952D01*
X8377095Y-6804952D02*
X8367572Y-6785905D01*
X8367572Y-6785905D02*
X8367572Y-6709714D01*
X8367572Y-6709714D02*
X8377095Y-6690667D01*
X8377095Y-6690667D02*
X8396143Y-6681143D01*
X8396143Y-6681143D02*
X8434238Y-6681143D01*
X8434238Y-6681143D02*
X8453286Y-6690667D01*
X8453286Y-6690667D02*
X8462810Y-6709714D01*
X8462810Y-6709714D02*
X8462810Y-6728762D01*
X8462810Y-6728762D02*
X8367572Y-6747809D01*
X8539000Y-6804952D02*
X8558048Y-6814476D01*
X8558048Y-6814476D02*
X8596143Y-6814476D01*
X8596143Y-6814476D02*
X8615191Y-6804952D01*
X8615191Y-6804952D02*
X8624715Y-6785905D01*
X8624715Y-6785905D02*
X8624715Y-6776381D01*
X8624715Y-6776381D02*
X8615191Y-6757333D01*
X8615191Y-6757333D02*
X8596143Y-6747809D01*
X8596143Y-6747809D02*
X8567572Y-6747809D01*
X8567572Y-6747809D02*
X8548524Y-6738286D01*
X8548524Y-6738286D02*
X8539000Y-6719238D01*
X8539000Y-6719238D02*
X8539000Y-6709714D01*
X8539000Y-6709714D02*
X8548524Y-6690667D01*
X8548524Y-6690667D02*
X8567572Y-6681143D01*
X8567572Y-6681143D02*
X8596143Y-6681143D01*
X8596143Y-6681143D02*
X8615191Y-6690667D01*
X8691381Y-6890667D02*
X8700905Y-6881143D01*
X8700905Y-6881143D02*
X8719953Y-6852571D01*
X8719953Y-6852571D02*
X8729476Y-6833524D01*
X8729476Y-6833524D02*
X8739000Y-6804952D01*
X8739000Y-6804952D02*
X8748524Y-6757333D01*
X8748524Y-6757333D02*
X8748524Y-6719238D01*
X8748524Y-6719238D02*
X8739000Y-6671619D01*
X8739000Y-6671619D02*
X8729476Y-6643048D01*
X8729476Y-6643048D02*
X8719953Y-6624000D01*
X8719953Y-6624000D02*
X8700905Y-6595428D01*
X8700905Y-6595428D02*
X8691381Y-6585905D01*
D13*
X4059000Y-7005000D02*
G75*
G03*
X4059000Y-7005000I-76000J0D01*
G01*
D11*
X4411381Y-7078476D02*
X4297095Y-7078476D01*
X4354238Y-7078476D02*
X4354238Y-6878476D01*
X4354238Y-6878476D02*
X4335190Y-6907048D01*
X4335190Y-6907048D02*
X4316143Y-6926095D01*
X4316143Y-6926095D02*
X4297095Y-6935619D01*
X4497095Y-7059428D02*
X4506619Y-7068952D01*
X4506619Y-7068952D02*
X4497095Y-7078476D01*
X4497095Y-7078476D02*
X4487571Y-7068952D01*
X4487571Y-7068952D02*
X4497095Y-7059428D01*
X4497095Y-7059428D02*
X4497095Y-7078476D01*
X4687571Y-6878476D02*
X4592333Y-6878476D01*
X4592333Y-6878476D02*
X4582810Y-6973714D01*
X4582810Y-6973714D02*
X4592333Y-6964190D01*
X4592333Y-6964190D02*
X4611381Y-6954667D01*
X4611381Y-6954667D02*
X4659000Y-6954667D01*
X4659000Y-6954667D02*
X4678048Y-6964190D01*
X4678048Y-6964190D02*
X4687571Y-6973714D01*
X4687571Y-6973714D02*
X4697095Y-6992762D01*
X4697095Y-6992762D02*
X4697095Y-7040381D01*
X4697095Y-7040381D02*
X4687571Y-7059428D01*
X4687571Y-7059428D02*
X4678048Y-7068952D01*
X4678048Y-7068952D02*
X4659000Y-7078476D01*
X4659000Y-7078476D02*
X4611381Y-7078476D01*
X4611381Y-7078476D02*
X4592333Y-7068952D01*
X4592333Y-7068952D02*
X4582810Y-7059428D01*
X4773286Y-6897524D02*
X4782810Y-6888000D01*
X4782810Y-6888000D02*
X4801857Y-6878476D01*
X4801857Y-6878476D02*
X4849476Y-6878476D01*
X4849476Y-6878476D02*
X4868524Y-6888000D01*
X4868524Y-6888000D02*
X4878048Y-6897524D01*
X4878048Y-6897524D02*
X4887571Y-6916571D01*
X4887571Y-6916571D02*
X4887571Y-6935619D01*
X4887571Y-6935619D02*
X4878048Y-6964190D01*
X4878048Y-6964190D02*
X4763762Y-7078476D01*
X4763762Y-7078476D02*
X4887571Y-7078476D01*
X5011381Y-6878476D02*
X5030429Y-6878476D01*
X5030429Y-6878476D02*
X5049476Y-6888000D01*
X5049476Y-6888000D02*
X5059000Y-6897524D01*
X5059000Y-6897524D02*
X5068524Y-6916571D01*
X5068524Y-6916571D02*
X5078048Y-6954667D01*
X5078048Y-6954667D02*
X5078048Y-7002286D01*
X5078048Y-7002286D02*
X5068524Y-7040381D01*
X5068524Y-7040381D02*
X5059000Y-7059428D01*
X5059000Y-7059428D02*
X5049476Y-7068952D01*
X5049476Y-7068952D02*
X5030429Y-7078476D01*
X5030429Y-7078476D02*
X5011381Y-7078476D01*
X5011381Y-7078476D02*
X4992333Y-7068952D01*
X4992333Y-7068952D02*
X4982810Y-7059428D01*
X4982810Y-7059428D02*
X4973286Y-7040381D01*
X4973286Y-7040381D02*
X4963762Y-7002286D01*
X4963762Y-7002286D02*
X4963762Y-6954667D01*
X4963762Y-6954667D02*
X4973286Y-6916571D01*
X4973286Y-6916571D02*
X4982810Y-6897524D01*
X4982810Y-6897524D02*
X4992333Y-6888000D01*
X4992333Y-6888000D02*
X5011381Y-6878476D01*
X5163762Y-7078476D02*
X5163762Y-6945143D01*
X5163762Y-6964190D02*
X5173286Y-6954667D01*
X5173286Y-6954667D02*
X5192333Y-6945143D01*
X5192333Y-6945143D02*
X5220905Y-6945143D01*
X5220905Y-6945143D02*
X5239952Y-6954667D01*
X5239952Y-6954667D02*
X5249476Y-6973714D01*
X5249476Y-6973714D02*
X5249476Y-7078476D01*
X5249476Y-6973714D02*
X5259000Y-6954667D01*
X5259000Y-6954667D02*
X5278048Y-6945143D01*
X5278048Y-6945143D02*
X5306619Y-6945143D01*
X5306619Y-6945143D02*
X5325667Y-6954667D01*
X5325667Y-6954667D02*
X5335191Y-6973714D01*
X5335191Y-6973714D02*
X5335191Y-7078476D01*
X5430429Y-7078476D02*
X5430429Y-6945143D01*
X5430429Y-6964190D02*
X5439952Y-6954667D01*
X5439952Y-6954667D02*
X5459000Y-6945143D01*
X5459000Y-6945143D02*
X5487572Y-6945143D01*
X5487572Y-6945143D02*
X5506619Y-6954667D01*
X5506619Y-6954667D02*
X5516143Y-6973714D01*
X5516143Y-6973714D02*
X5516143Y-7078476D01*
X5516143Y-6973714D02*
X5525667Y-6954667D01*
X5525667Y-6954667D02*
X5544714Y-6945143D01*
X5544714Y-6945143D02*
X5573286Y-6945143D01*
X5573286Y-6945143D02*
X5592333Y-6954667D01*
X5592333Y-6954667D02*
X5601857Y-6973714D01*
X5601857Y-6973714D02*
X5601857Y-7078476D01*
X5959952Y-6868952D02*
X5788524Y-7126095D01*
X6184714Y-6878476D02*
X6203762Y-6878476D01*
X6203762Y-6878476D02*
X6222810Y-6888000D01*
X6222810Y-6888000D02*
X6232333Y-6897524D01*
X6232333Y-6897524D02*
X6241857Y-6916571D01*
X6241857Y-6916571D02*
X6251381Y-6954667D01*
X6251381Y-6954667D02*
X6251381Y-7002286D01*
X6251381Y-7002286D02*
X6241857Y-7040381D01*
X6241857Y-7040381D02*
X6232333Y-7059428D01*
X6232333Y-7059428D02*
X6222810Y-7068952D01*
X6222810Y-7068952D02*
X6203762Y-7078476D01*
X6203762Y-7078476D02*
X6184714Y-7078476D01*
X6184714Y-7078476D02*
X6165667Y-7068952D01*
X6165667Y-7068952D02*
X6156143Y-7059428D01*
X6156143Y-7059428D02*
X6146619Y-7040381D01*
X6146619Y-7040381D02*
X6137095Y-7002286D01*
X6137095Y-7002286D02*
X6137095Y-6954667D01*
X6137095Y-6954667D02*
X6146619Y-6916571D01*
X6146619Y-6916571D02*
X6156143Y-6897524D01*
X6156143Y-6897524D02*
X6165667Y-6888000D01*
X6165667Y-6888000D02*
X6184714Y-6878476D01*
X6337095Y-7059428D02*
X6346619Y-7068952D01*
X6346619Y-7068952D02*
X6337095Y-7078476D01*
X6337095Y-7078476D02*
X6327571Y-7068952D01*
X6327571Y-7068952D02*
X6337095Y-7059428D01*
X6337095Y-7059428D02*
X6337095Y-7078476D01*
X6470429Y-6878476D02*
X6489476Y-6878476D01*
X6489476Y-6878476D02*
X6508524Y-6888000D01*
X6508524Y-6888000D02*
X6518048Y-6897524D01*
X6518048Y-6897524D02*
X6527571Y-6916571D01*
X6527571Y-6916571D02*
X6537095Y-6954667D01*
X6537095Y-6954667D02*
X6537095Y-7002286D01*
X6537095Y-7002286D02*
X6527571Y-7040381D01*
X6527571Y-7040381D02*
X6518048Y-7059428D01*
X6518048Y-7059428D02*
X6508524Y-7068952D01*
X6508524Y-7068952D02*
X6489476Y-7078476D01*
X6489476Y-7078476D02*
X6470429Y-7078476D01*
X6470429Y-7078476D02*
X6451381Y-7068952D01*
X6451381Y-7068952D02*
X6441857Y-7059428D01*
X6441857Y-7059428D02*
X6432333Y-7040381D01*
X6432333Y-7040381D02*
X6422810Y-7002286D01*
X6422810Y-7002286D02*
X6422810Y-6954667D01*
X6422810Y-6954667D02*
X6432333Y-6916571D01*
X6432333Y-6916571D02*
X6441857Y-6897524D01*
X6441857Y-6897524D02*
X6451381Y-6888000D01*
X6451381Y-6888000D02*
X6470429Y-6878476D01*
X6718048Y-6878476D02*
X6622810Y-6878476D01*
X6622810Y-6878476D02*
X6613286Y-6973714D01*
X6613286Y-6973714D02*
X6622810Y-6964190D01*
X6622810Y-6964190D02*
X6641857Y-6954667D01*
X6641857Y-6954667D02*
X6689476Y-6954667D01*
X6689476Y-6954667D02*
X6708524Y-6964190D01*
X6708524Y-6964190D02*
X6718048Y-6973714D01*
X6718048Y-6973714D02*
X6727571Y-6992762D01*
X6727571Y-6992762D02*
X6727571Y-7040381D01*
X6727571Y-7040381D02*
X6718048Y-7059428D01*
X6718048Y-7059428D02*
X6708524Y-7068952D01*
X6708524Y-7068952D02*
X6689476Y-7078476D01*
X6689476Y-7078476D02*
X6641857Y-7078476D01*
X6641857Y-7078476D02*
X6622810Y-7068952D01*
X6622810Y-7068952D02*
X6613286Y-7059428D01*
X6822810Y-7078476D02*
X6860905Y-7078476D01*
X6860905Y-7078476D02*
X6879952Y-7068952D01*
X6879952Y-7068952D02*
X6889476Y-7059428D01*
X6889476Y-7059428D02*
X6908524Y-7030857D01*
X6908524Y-7030857D02*
X6918048Y-6992762D01*
X6918048Y-6992762D02*
X6918048Y-6916571D01*
X6918048Y-6916571D02*
X6908524Y-6897524D01*
X6908524Y-6897524D02*
X6899000Y-6888000D01*
X6899000Y-6888000D02*
X6879952Y-6878476D01*
X6879952Y-6878476D02*
X6841857Y-6878476D01*
X6841857Y-6878476D02*
X6822810Y-6888000D01*
X6822810Y-6888000D02*
X6813286Y-6897524D01*
X6813286Y-6897524D02*
X6803762Y-6916571D01*
X6803762Y-6916571D02*
X6803762Y-6964190D01*
X6803762Y-6964190D02*
X6813286Y-6983238D01*
X6813286Y-6983238D02*
X6822810Y-6992762D01*
X6822810Y-6992762D02*
X6841857Y-7002286D01*
X6841857Y-7002286D02*
X6879952Y-7002286D01*
X6879952Y-7002286D02*
X6899000Y-6992762D01*
X6899000Y-6992762D02*
X6908524Y-6983238D01*
X6908524Y-6983238D02*
X6918048Y-6964190D01*
X7032333Y-6964190D02*
X7013286Y-6954667D01*
X7013286Y-6954667D02*
X7003762Y-6945143D01*
X7003762Y-6945143D02*
X6994238Y-6926095D01*
X6994238Y-6926095D02*
X6994238Y-6916571D01*
X6994238Y-6916571D02*
X7003762Y-6897524D01*
X7003762Y-6897524D02*
X7013286Y-6888000D01*
X7013286Y-6888000D02*
X7032333Y-6878476D01*
X7032333Y-6878476D02*
X7070429Y-6878476D01*
X7070429Y-6878476D02*
X7089476Y-6888000D01*
X7089476Y-6888000D02*
X7099000Y-6897524D01*
X7099000Y-6897524D02*
X7108524Y-6916571D01*
X7108524Y-6916571D02*
X7108524Y-6926095D01*
X7108524Y-6926095D02*
X7099000Y-6945143D01*
X7099000Y-6945143D02*
X7089476Y-6954667D01*
X7089476Y-6954667D02*
X7070429Y-6964190D01*
X7070429Y-6964190D02*
X7032333Y-6964190D01*
X7032333Y-6964190D02*
X7013286Y-6973714D01*
X7013286Y-6973714D02*
X7003762Y-6983238D01*
X7003762Y-6983238D02*
X6994238Y-7002286D01*
X6994238Y-7002286D02*
X6994238Y-7040381D01*
X6994238Y-7040381D02*
X7003762Y-7059428D01*
X7003762Y-7059428D02*
X7013286Y-7068952D01*
X7013286Y-7068952D02*
X7032333Y-7078476D01*
X7032333Y-7078476D02*
X7070429Y-7078476D01*
X7070429Y-7078476D02*
X7089476Y-7068952D01*
X7089476Y-7068952D02*
X7099000Y-7059428D01*
X7099000Y-7059428D02*
X7108524Y-7040381D01*
X7108524Y-7040381D02*
X7108524Y-7002286D01*
X7108524Y-7002286D02*
X7099000Y-6983238D01*
X7099000Y-6983238D02*
X7089476Y-6973714D01*
X7089476Y-6973714D02*
X7070429Y-6964190D01*
X7184714Y-6878476D02*
X7184714Y-6916571D01*
X7260905Y-6878476D02*
X7260905Y-6916571D01*
X7523762Y-7154667D02*
X7514238Y-7145143D01*
X7514238Y-7145143D02*
X7495191Y-7116571D01*
X7495191Y-7116571D02*
X7485667Y-7097524D01*
X7485667Y-7097524D02*
X7476143Y-7068952D01*
X7476143Y-7068952D02*
X7466619Y-7021333D01*
X7466619Y-7021333D02*
X7466619Y-6983238D01*
X7466619Y-6983238D02*
X7476143Y-6935619D01*
X7476143Y-6935619D02*
X7485667Y-6907048D01*
X7485667Y-6907048D02*
X7495191Y-6888000D01*
X7495191Y-6888000D02*
X7514238Y-6859428D01*
X7514238Y-6859428D02*
X7523762Y-6849905D01*
X7590429Y-6897524D02*
X7599952Y-6888000D01*
X7599952Y-6888000D02*
X7619000Y-6878476D01*
X7619000Y-6878476D02*
X7666619Y-6878476D01*
X7666619Y-6878476D02*
X7685667Y-6888000D01*
X7685667Y-6888000D02*
X7695191Y-6897524D01*
X7695191Y-6897524D02*
X7704714Y-6916571D01*
X7704714Y-6916571D02*
X7704714Y-6935619D01*
X7704714Y-6935619D02*
X7695191Y-6964190D01*
X7695191Y-6964190D02*
X7580905Y-7078476D01*
X7580905Y-7078476D02*
X7704714Y-7078476D01*
X7910429Y-7078476D02*
X7910429Y-6878476D01*
X7996143Y-7078476D02*
X7996143Y-6973714D01*
X7996143Y-6973714D02*
X7986619Y-6954667D01*
X7986619Y-6954667D02*
X7967572Y-6945143D01*
X7967572Y-6945143D02*
X7939000Y-6945143D01*
X7939000Y-6945143D02*
X7919952Y-6954667D01*
X7919952Y-6954667D02*
X7910429Y-6964190D01*
X8119952Y-7078476D02*
X8100905Y-7068952D01*
X8100905Y-7068952D02*
X8091381Y-7059428D01*
X8091381Y-7059428D02*
X8081857Y-7040381D01*
X8081857Y-7040381D02*
X8081857Y-6983238D01*
X8081857Y-6983238D02*
X8091381Y-6964190D01*
X8091381Y-6964190D02*
X8100905Y-6954667D01*
X8100905Y-6954667D02*
X8119952Y-6945143D01*
X8119952Y-6945143D02*
X8148524Y-6945143D01*
X8148524Y-6945143D02*
X8167572Y-6954667D01*
X8167572Y-6954667D02*
X8177095Y-6964190D01*
X8177095Y-6964190D02*
X8186619Y-6983238D01*
X8186619Y-6983238D02*
X8186619Y-7040381D01*
X8186619Y-7040381D02*
X8177095Y-7059428D01*
X8177095Y-7059428D02*
X8167572Y-7068952D01*
X8167572Y-7068952D02*
X8148524Y-7078476D01*
X8148524Y-7078476D02*
X8119952Y-7078476D01*
X8300905Y-7078476D02*
X8281857Y-7068952D01*
X8281857Y-7068952D02*
X8272333Y-7049905D01*
X8272333Y-7049905D02*
X8272333Y-6878476D01*
X8453286Y-7068952D02*
X8434238Y-7078476D01*
X8434238Y-7078476D02*
X8396143Y-7078476D01*
X8396143Y-7078476D02*
X8377095Y-7068952D01*
X8377095Y-7068952D02*
X8367572Y-7049905D01*
X8367572Y-7049905D02*
X8367572Y-6973714D01*
X8367572Y-6973714D02*
X8377095Y-6954667D01*
X8377095Y-6954667D02*
X8396143Y-6945143D01*
X8396143Y-6945143D02*
X8434238Y-6945143D01*
X8434238Y-6945143D02*
X8453286Y-6954667D01*
X8453286Y-6954667D02*
X8462810Y-6973714D01*
X8462810Y-6973714D02*
X8462810Y-6992762D01*
X8462810Y-6992762D02*
X8367572Y-7011809D01*
X8539000Y-7068952D02*
X8558048Y-7078476D01*
X8558048Y-7078476D02*
X8596143Y-7078476D01*
X8596143Y-7078476D02*
X8615191Y-7068952D01*
X8615191Y-7068952D02*
X8624715Y-7049905D01*
X8624715Y-7049905D02*
X8624715Y-7040381D01*
X8624715Y-7040381D02*
X8615191Y-7021333D01*
X8615191Y-7021333D02*
X8596143Y-7011809D01*
X8596143Y-7011809D02*
X8567572Y-7011809D01*
X8567572Y-7011809D02*
X8548524Y-7002286D01*
X8548524Y-7002286D02*
X8539000Y-6983238D01*
X8539000Y-6983238D02*
X8539000Y-6973714D01*
X8539000Y-6973714D02*
X8548524Y-6954667D01*
X8548524Y-6954667D02*
X8567572Y-6945143D01*
X8567572Y-6945143D02*
X8596143Y-6945143D01*
X8596143Y-6945143D02*
X8615191Y-6954667D01*
X8691381Y-7154667D02*
X8700905Y-7145143D01*
X8700905Y-7145143D02*
X8719953Y-7116571D01*
X8719953Y-7116571D02*
X8729476Y-7097524D01*
X8729476Y-7097524D02*
X8739000Y-7068952D01*
X8739000Y-7068952D02*
X8748524Y-7021333D01*
X8748524Y-7021333D02*
X8748524Y-6983238D01*
X8748524Y-6983238D02*
X8739000Y-6935619D01*
X8739000Y-6935619D02*
X8729476Y-6907048D01*
X8729476Y-6907048D02*
X8719953Y-6888000D01*
X8719953Y-6888000D02*
X8700905Y-6859428D01*
X8700905Y-6859428D02*
X8691381Y-6849905D01*
M02*
