%TF.GenerationSoftware,KiCad,Pcbnew,(7.0.0)*%
%TF.CreationDate,2023-02-16T14:42:32-08:00*%
%TF.ProjectId,Lab 4 E2,4c616220-3420-4453-922e-6b696361645f,rev?*%
%TF.SameCoordinates,Original*%
%TF.FileFunction,Drillmap*%
%TF.FilePolarity,Positive*%
%FSLAX45Y45*%
G04 Gerber Fmt 4.5, Leading zero omitted, Abs format (unit mm)*
G04 Created by KiCad (PCBNEW (7.0.0)) date 2023-02-16 14:42:32*
%MOMM*%
%LPD*%
G01*
G04 APERTURE LIST*
%ADD10C,0.100000*%
%ADD11C,0.200000*%
G04 APERTURE END LIST*
D10*
X4064000Y-2032000D02*
X7366000Y-2032000D01*
X7366000Y-2032000D02*
X7366000Y-6096000D01*
X7366000Y-6096000D02*
X4064000Y-6096000D01*
X4064000Y-6096000D02*
X4064000Y-2032000D01*
D11*
X4306619Y-6394476D02*
X4306619Y-6194476D01*
X4306619Y-6194476D02*
X4354238Y-6194476D01*
X4354238Y-6194476D02*
X4382810Y-6204000D01*
X4382810Y-6204000D02*
X4401857Y-6223048D01*
X4401857Y-6223048D02*
X4411381Y-6242095D01*
X4411381Y-6242095D02*
X4420905Y-6280190D01*
X4420905Y-6280190D02*
X4420905Y-6308762D01*
X4420905Y-6308762D02*
X4411381Y-6346857D01*
X4411381Y-6346857D02*
X4401857Y-6365905D01*
X4401857Y-6365905D02*
X4382810Y-6384952D01*
X4382810Y-6384952D02*
X4354238Y-6394476D01*
X4354238Y-6394476D02*
X4306619Y-6394476D01*
X4506619Y-6394476D02*
X4506619Y-6261143D01*
X4506619Y-6299238D02*
X4516143Y-6280190D01*
X4516143Y-6280190D02*
X4525667Y-6270667D01*
X4525667Y-6270667D02*
X4544714Y-6261143D01*
X4544714Y-6261143D02*
X4563762Y-6261143D01*
X4630429Y-6394476D02*
X4630429Y-6261143D01*
X4630429Y-6194476D02*
X4620905Y-6204000D01*
X4620905Y-6204000D02*
X4630429Y-6213524D01*
X4630429Y-6213524D02*
X4639952Y-6204000D01*
X4639952Y-6204000D02*
X4630429Y-6194476D01*
X4630429Y-6194476D02*
X4630429Y-6213524D01*
X4754238Y-6394476D02*
X4735190Y-6384952D01*
X4735190Y-6384952D02*
X4725667Y-6365905D01*
X4725667Y-6365905D02*
X4725667Y-6194476D01*
X4859000Y-6394476D02*
X4839952Y-6384952D01*
X4839952Y-6384952D02*
X4830429Y-6365905D01*
X4830429Y-6365905D02*
X4830429Y-6194476D01*
X5055190Y-6394476D02*
X5055190Y-6194476D01*
X5055190Y-6194476D02*
X5121857Y-6337333D01*
X5121857Y-6337333D02*
X5188524Y-6194476D01*
X5188524Y-6194476D02*
X5188524Y-6394476D01*
X5369476Y-6394476D02*
X5369476Y-6289714D01*
X5369476Y-6289714D02*
X5359952Y-6270667D01*
X5359952Y-6270667D02*
X5340905Y-6261143D01*
X5340905Y-6261143D02*
X5302809Y-6261143D01*
X5302809Y-6261143D02*
X5283762Y-6270667D01*
X5369476Y-6384952D02*
X5350429Y-6394476D01*
X5350429Y-6394476D02*
X5302809Y-6394476D01*
X5302809Y-6394476D02*
X5283762Y-6384952D01*
X5283762Y-6384952D02*
X5274238Y-6365905D01*
X5274238Y-6365905D02*
X5274238Y-6346857D01*
X5274238Y-6346857D02*
X5283762Y-6327809D01*
X5283762Y-6327809D02*
X5302809Y-6318286D01*
X5302809Y-6318286D02*
X5350429Y-6318286D01*
X5350429Y-6318286D02*
X5369476Y-6308762D01*
X5464714Y-6261143D02*
X5464714Y-6461143D01*
X5464714Y-6270667D02*
X5483762Y-6261143D01*
X5483762Y-6261143D02*
X5521857Y-6261143D01*
X5521857Y-6261143D02*
X5540905Y-6270667D01*
X5540905Y-6270667D02*
X5550429Y-6280190D01*
X5550429Y-6280190D02*
X5559952Y-6299238D01*
X5559952Y-6299238D02*
X5559952Y-6356381D01*
X5559952Y-6356381D02*
X5550429Y-6375428D01*
X5550429Y-6375428D02*
X5540905Y-6384952D01*
X5540905Y-6384952D02*
X5521857Y-6394476D01*
X5521857Y-6394476D02*
X5483762Y-6394476D01*
X5483762Y-6394476D02*
X5464714Y-6384952D01*
X5645667Y-6375428D02*
X5655190Y-6384952D01*
X5655190Y-6384952D02*
X5645667Y-6394476D01*
X5645667Y-6394476D02*
X5636143Y-6384952D01*
X5636143Y-6384952D02*
X5645667Y-6375428D01*
X5645667Y-6375428D02*
X5645667Y-6394476D01*
X5645667Y-6270667D02*
X5655190Y-6280190D01*
X5655190Y-6280190D02*
X5645667Y-6289714D01*
X5645667Y-6289714D02*
X5636143Y-6280190D01*
X5636143Y-6280190D02*
X5645667Y-6270667D01*
X5645667Y-6270667D02*
X5645667Y-6289714D01*
M02*
